<svg width="44" height="41" viewBox="0 0 44 41" fill="none" xmlns="http://www.w3.org/2000/svg">
<path d="M39.3333 0.083374H11.1666C5.19315 0.083374 0.333313 4.66283 0.333313 10.2917V30.7084C0.333313 36.3373 5.19315 40.9167 11.1666 40.9167H37.1666C40.7503 40.9167 43.6666 38.1686 43.6666 34.7917C43.6666 31.4148 40.7503 28.6667 37.1666 28.6667H8.99998V32.75H37.1666C37.7413 32.75 38.2924 32.9651 38.6987 33.348C39.105 33.7309 39.3333 34.2502 39.3333 34.7917C39.3333 35.3332 39.105 35.8525 38.6987 36.2354C38.2924 36.6183 37.7413 36.8334 37.1666 36.8334H11.1666C7.58298 36.8334 4.66665 34.0853 4.66665 30.7084C4.66665 27.3315 7.58298 24.5834 11.1666 24.5834H39.3333C41.7231 24.5834 43.6666 22.752 43.6666 20.5V4.16671C43.6666 1.91475 41.7231 0.083374 39.3333 0.083374ZM39.3333 20.5H11.1666C8.82145 20.4972 6.53931 21.2155 4.66665 22.5458V10.2917C4.66665 6.91479 7.58298 4.16671 11.1666 4.16671H39.3333V20.5Z" fill="black"/>
</svg>
