<svg width="23" height="23" viewBox="0 0 23 23" fill="none" xmlns="http://www.w3.org/2000/svg">
<path fill-rule="evenodd" clip-rule="evenodd" d="M17.6362 5.39829C16.8392 4.59605 15.891 3.95994 14.8464 3.52681C13.8018 3.09367 12.6816 2.87212 11.5508 2.875C6.80896 2.875 2.94879 6.73421 2.94688 11.478C2.94688 12.994 3.34267 14.4737 4.09496 15.779L2.875 20.2362L7.43571 19.0392C8.69725 19.7259 10.1106 20.086 11.547 20.0867H11.5508C16.2917 20.0867 20.1518 16.2275 20.1538 11.4837C20.157 10.3533 19.9362 9.23353 19.5041 8.18901C19.072 7.1445 18.4371 6.19598 17.6362 5.39829ZM11.5508 18.6348H11.5479C10.2671 18.6349 9.0099 18.2903 7.90817 17.6372L7.6475 17.4819L4.94117 18.192L5.66279 15.5537L5.49317 15.2835C4.77709 14.1435 4.39802 12.8242 4.39971 11.478C4.40163 7.53537 7.60917 4.32783 11.5537 4.32783C12.4931 4.32574 13.4236 4.50999 14.2913 4.86991C15.159 5.22983 15.9467 5.75828 16.6089 6.42466C17.2746 7.08787 17.8022 7.87644 18.1613 8.74479C18.5204 9.61314 18.7038 10.544 18.7009 11.4837C18.699 15.4263 15.4915 18.6348 11.5508 18.6348ZM15.4733 13.2787C15.2576 13.1704 14.2015 12.651 14.0041 12.5791C13.8077 12.5072 13.6649 12.4717 13.5211 12.6864C13.3774 12.9011 12.9653 13.385 12.8398 13.5288C12.7142 13.6725 12.5887 13.6898 12.374 13.5825C12.1593 13.4751 11.4665 13.248 10.6452 12.5158C10.006 11.9456 9.57471 11.2422 9.44917 11.0266C9.32363 10.811 9.43575 10.695 9.54404 10.5877C9.64083 10.4918 9.75871 10.3366 9.86604 10.211C9.97338 10.0855 10.0088 9.99637 10.0807 9.85262C10.1526 9.70887 10.1171 9.58333 10.0625 9.476C10.0088 9.36771 9.57854 8.30971 9.39933 7.87941C9.22587 7.46254 9.04858 7.51812 8.91633 7.51237C8.77937 7.50677 8.64229 7.50421 8.50521 7.50471C8.3962 7.50748 8.28895 7.53275 8.19017 7.57893C8.09139 7.6251 8.00321 7.69119 7.93117 7.77304C7.73375 7.98866 7.17888 8.50808 7.17888 9.56608C7.17888 10.6241 7.94937 11.6466 8.05671 11.7904C8.16404 11.9341 9.57279 14.1047 11.729 15.0362C12.2427 15.2576 12.6433 15.3899 12.9548 15.4895C13.4694 15.6534 13.938 15.6295 14.3089 15.5748C14.7219 15.5135 15.5806 15.0554 15.7598 14.5532C15.939 14.0511 15.939 13.6208 15.8853 13.5307C15.8317 13.4406 15.687 13.386 15.4733 13.2787Z" fill="#767676"/>
</svg>
