<svg width="65" height="29" viewBox="0 0 65 29" fill="none" xmlns="http://www.w3.org/2000/svg">
<path d="M46.2632 24.0903C37.3051 24.0112 27.3969 23.8043 18.818 23.6201" stroke="black" stroke-width="2" stroke-miterlimit="10" stroke-linecap="round" stroke-linejoin="round"/>
<path d="M52.4403 27.3726C50.6454 27.3726 49.1903 25.9175 49.1903 24.1226C49.1903 22.3276 50.6454 20.8726 52.4403 20.8726C54.2353 20.8726 55.6903 22.3276 55.6903 24.1226C55.6903 25.9175 54.2353 27.3726 52.4403 27.3726Z" stroke="black" stroke-width="2" stroke-miterlimit="10"/>
<path d="M11.1837 27.3726C9.38882 27.3726 7.93374 25.9175 7.93374 24.1226C7.93374 22.3276 9.38882 20.8726 11.1837 20.8726C12.9787 20.8726 14.4337 22.3276 14.4337 24.1226C14.4337 25.9175 12.9787 27.3726 11.1837 27.3726Z" stroke="black" stroke-width="2" stroke-miterlimit="10"/>
<path d="M34.2566 6.11865V12.2579L48.7917 13.2513" stroke="black" stroke-width="2" stroke-miterlimit="10" stroke-linecap="round" stroke-linejoin="round"/>
<path d="M44.9101 20.202L17.8267 19.1187" stroke="black" stroke-width="2" stroke-miterlimit="10" stroke-linecap="round" stroke-linejoin="round"/>
<path d="M56.4129 16.4648C56.4129 16.4648 58.5417 18.2632 60.288 18.5427" stroke="black" stroke-width="2" stroke-miterlimit="10" stroke-linecap="round" stroke-linejoin="round"/>
<path d="M4.55158 23.3178L3.63075 23.2939C3.63075 23.2939 1.46408 23.4304 1.125 22.008C1.08058 21.8195 0.812997 7.06886 2.78141 2.97278C2.86011 2.80971 2.97892 2.66929 3.12672 2.5647C3.27452 2.4601 3.44645 2.39475 3.62641 2.37477C6.92191 1.98477 24.6799 1.12028 38.5672 2.71061C38.5672 2.71061 43.5949 4.01494 52.3797 10.1596C52.3797 10.1596 58.338 12.5971 60.9109 14.3564C63.4838 16.1158 63.4167 19.5034 63.4167 19.5034C63.4167 19.5034 63.1458 22.7534 62.6042 23.7695C62.5218 23.9244 62.173 24.0209 59.807 24.0729" stroke="black" stroke-width="2" stroke-miterlimit="10" stroke-linecap="round" stroke-linejoin="round"/>
</svg>
