<svg width="35" height="35" viewBox="0 0 35 35" fill="none" xmlns="http://www.w3.org/2000/svg">
<g id="24 / arrows / circle-chevron-right">
<path id="icon" fill-rule="evenodd" clip-rule="evenodd" d="M17.5 33.5418C8.64047 33.5418 1.45837 26.3597 1.45837 17.5002C1.45837 8.64059 8.64047 1.4585 17.5 1.4585C26.3596 1.4585 33.5417 8.64059 33.5417 17.5002C33.5417 26.3597 26.3596 33.5418 17.5 33.5418ZM17.5 30.6252C24.7488 30.6252 30.625 24.7489 30.625 17.5002C30.625 10.2514 24.7488 4.37516 17.5 4.37516C10.2513 4.37516 4.37504 10.2514 4.37504 17.5002C4.37504 24.7489 10.2513 30.6252 17.5 30.6252ZM15.6146 10.6357L13.5522 12.6981L18.3543 17.5002L13.5522 22.3023L15.6146 24.3647L22.4791 17.5002L15.6146 10.6357Z" fill="#696969"/>
</g>
</svg>
