<svg width="52" height="31" viewBox="0 0 52 31" fill="none" xmlns="http://www.w3.org/2000/svg">
<path fill-rule="evenodd" clip-rule="evenodd" d="M36.2246 4.86532L40.5234 12.1639L47 15.8292V22.6921H44.2683C43.3074 20.3841 40.7145 18.7306 37.6666 18.7306C34.6188 18.7306 32.0259 20.3842 31.0649 22.6921H20.935C19.9741 20.3842 17.3812 18.7306 14.3333 18.7306C11.2855 18.7306 8.69258 20.3841 7.73163 22.6921H4.99998V4.86532H36.2246ZM47 26.6536H44.2683C43.3074 28.9616 40.7145 30.6151 37.6666 30.6151C34.6188 30.6151 32.0259 28.9616 31.065 26.6536H20.935C19.974 28.9616 17.3811 30.6151 14.3333 30.6151C11.2855 30.6151 8.69258 28.9616 7.73163 26.6536H4.99998C2.42265 26.6536 0.333313 24.88 0.333313 22.6921V4.86532C0.333313 2.67744 2.42265 0.903809 4.99998 0.903809H36.2246C37.9922 0.903809 39.6081 1.75158 40.3986 3.09368L44.1432 9.45127L51.6666 13.709V22.6921C51.6666 24.88 49.5773 26.6536 47 26.6536ZM16.6666 24.6729C16.6666 25.7668 15.622 26.6536 14.3333 26.6536C13.0446 26.6536 12 25.7668 12 24.6729C12 23.5789 13.0446 22.6921 14.3333 22.6921C15.622 22.6921 16.6666 23.5789 16.6666 24.6729ZM40 24.6729C40 25.7668 38.9553 26.6536 37.6666 26.6536C36.378 26.6536 35.3333 25.7668 35.3333 24.6729C35.3333 23.5789 36.378 22.6921 37.6666 22.6921C38.9553 22.6921 40 23.5789 40 24.6729Z" fill="black"/>
</svg>
