<svg width="49" height="51" viewBox="0 0 49 51" fill="none" xmlns="http://www.w3.org/2000/svg">
<path d="M20.9583 0.112305L39.5074 5.9073C40.0248 6.06881 40.4769 6.39145 40.7979 6.82812C41.1189 7.26479 41.2919 7.79264 41.2917 8.3346V12.8206H46.375C47.0491 12.8206 47.6956 13.0884 48.1722 13.5651C48.6489 14.0417 48.9167 14.6882 48.9167 15.3623V35.6956C48.9167 36.3697 48.6489 37.0162 48.1722 37.4929C47.6956 37.9695 47.0491 38.2373 46.375 38.2373L38.1908 38.2398C37.2072 39.5361 36.0126 40.6798 34.6325 41.6203L20.9583 50.9456L7.28417 41.6228C5.23183 40.2235 3.55237 38.344 2.39181 36.1478C1.23126 33.9516 0.624743 31.5052 0.625 29.0212V8.3346C0.625307 7.79307 0.798562 7.2658 1.11951 6.82964C1.44046 6.39347 1.89233 6.07122 2.40925 5.90985L20.9583 0.112305ZM20.9583 5.43455L5.70833 10.2027V29.0212C5.70797 30.5773 6.0648 32.1127 6.75134 33.5091C7.43788 34.9056 8.43581 36.1258 9.66825 37.0758L10.1486 37.4214L20.9583 44.7948L30.5709 38.2373H18.4167C17.7426 38.2373 17.0961 37.9695 16.6194 37.4929C16.1428 37.0162 15.875 36.3697 15.875 35.6956V15.3623C15.875 14.6882 16.1428 14.0417 16.6194 13.5651C17.0961 13.0884 17.7426 12.8206 18.4167 12.8206H36.2083V10.2027L20.9583 5.43455ZM20.9583 25.529V33.154H43.8333V25.529H20.9583ZM20.9583 20.4456H43.8333V17.904H20.9583V20.4456Z" fill="black"/>
</svg>
