<svg width="112" height="112" viewBox="0 0 112 112" fill="none" xmlns="http://www.w3.org/2000/svg">
<g clip-path="url(#clip0)">
<path d="M109.364 77.6066L104.302 71.2191C104.128 71.0008 103.906 70.8242 103.655 70.704L94.8555 66.5202C95.6705 63.6666 96.1167 60.6604 96.1167 57.5487C96.1167 51.1352 94.2526 45.1531 91.049 40.1C90.9518 39.7604 90.7574 39.4511 90.4732 39.2118C84.5863 30.558 74.6618 24.8623 63.4292 24.8623C59.0553 24.8623 54.8161 25.717 50.8184 27.3909L40.6599 11.194C40.9524 10.3257 41.1008 9.43542 41.1008 8.53367C41.1008 3.8285 37.2713 0 32.5671 0C27.862 0 24.0335 3.8285 24.0335 8.53367C24.0335 12.8125 27.257 16.4028 31.4042 16.9764L41.5961 33.2267C39.7247 34.9079 38.0549 36.7929 36.6172 38.8524L19.3701 30.6824C18.2918 26.6188 14.3149 23.856 10.0538 24.4015C5.38625 24.995 2.07079 29.2749 2.66325 33.9424C3.2557 38.61 7.5262 41.9129 12.2042 41.333C13.0882 41.2201 13.944 40.9662 14.7611 40.5744L31.9527 48.7183C31.1513 51.5824 30.7407 54.5478 30.7407 57.5487C30.7407 57.8277 30.7553 58.1025 30.7616 58.3794C30.7375 58.5738 30.7386 58.7692 30.7762 58.9594C30.8566 60.8412 31.098 62.6823 31.4846 64.4701L26.3615 67.259C20.2583 70.5807 17.4235 77.778 19.6198 84.3713C22.1182 91.8642 30.2464 95.9299 37.8867 93.3835C40.6369 92.51 43.5145 93.2915 45.5792 95.467C47.83 97.8421 48.5269 101.177 47.3995 104.174L45.3818 109.529C45.0254 110.473 45.5019 111.527 46.4465 111.881C46.6586 111.962 46.876 112 47.0902 112C47.8279 111.999 48.5227 111.549 48.7986 110.817L50.8163 105.461C52.4421 101.145 51.4505 96.3531 48.2291 92.9551C45.1791 89.7378 40.896 88.5968 36.7896 89.8998C36.7791 89.9029 36.5963 89.9625 36.5848 89.9656C31.0019 91.8245 24.9467 88.7974 23.0847 83.2166C21.4474 78.3035 23.5601 72.9422 28.1075 70.4668L32.4919 68.0803C36.8857 80.9503 49.0891 90.2363 63.4292 90.2363C66.4845 90.2363 69.4405 89.8058 72.2481 89.0169C72.269 89.0127 72.2899 89.0054 72.3119 88.9991C73.5104 88.6595 74.6828 88.2572 75.8217 87.7891L83.1349 99.4481C83.2864 99.6894 83.4912 99.8932 83.7347 100.041L90.7073 104.256C90.9988 104.431 91.3259 104.519 91.6529 104.519C91.9915 104.519 92.33 104.424 92.6278 104.236C93.213 103.867 93.539 103.199 93.47 102.511L92.6644 94.4629C92.6351 94.1828 92.5421 93.9122 92.3948 93.674L85.0774 82.0087C86.9728 80.3285 88.6708 78.4321 90.1347 76.359L99.0602 80.6023C99.3068 80.7183 99.5743 80.7789 99.8449 80.7789H99.893L107.978 80.5637C108.67 80.5459 109.293 80.1384 109.585 79.5114C109.878 78.8845 109.791 78.1489 109.364 77.6066ZM78.4245 82.3755C77.5614 82.8938 76.6701 83.3796 75.7433 83.8143C75.69 83.8394 75.6441 83.8749 75.5949 83.9042C74.4926 84.4151 73.3557 84.8624 72.1854 85.2333C67.707 82.0171 63.6403 78.4164 60.0709 74.5022C60.1085 74.5022 60.1461 74.5043 60.1838 74.5043C63.1544 74.5043 66.1668 74.3152 69.2106 73.9526C72.0151 76.9514 75.1028 79.7768 78.4245 82.3755ZM72.0204 29.812C73.3672 30.2299 74.6713 30.744 75.9262 31.3448C72.9096 33.5704 68.7133 37.4031 64.8649 43.4813C64.6904 43.6642 64.5577 43.8752 64.4731 44.1072C59.1232 52.8269 54.5601 65.9852 54.9781 85.3263C53.7639 84.9564 52.5853 84.505 51.4432 83.9846C51.1788 78.0266 50.6261 43.6704 72.0204 29.812ZM82.7431 35.8933C78.529 40.6078 71.2503 43.7112 68.2943 44.8324C68.288 44.8198 68.2817 44.8073 68.2744 44.7947C71.1019 40.3351 74.7465 36.3478 79.4391 33.3427C80.6021 34.1138 81.7055 34.9664 82.7431 35.8933ZM87.0115 40.6413C82.7817 45.964 74.4278 49.3944 71.6034 50.4403C71.0894 49.6546 70.5899 48.8594 70.1082 48.0548C73.5762 46.7048 80.7526 43.4886 85.3135 38.4992C85.9123 39.1847 86.4786 39.9004 87.0115 40.6413ZM91.328 49.5239C85.6343 51.7882 80.0044 53.4569 74.48 54.5259C74.2324 54.1988 73.9858 53.8707 73.7434 53.5395C77.2271 52.1853 84.4766 48.9367 89.0428 43.8899C89.9926 45.6651 90.7595 47.5522 91.328 49.5239ZM92.4418 56.6376C92.2516 56.6491 92.0594 56.6815 91.8734 56.7567C78.8602 61.9624 68.1448 63.3082 60.8932 63.3949C61.1816 62.1317 61.5066 60.8548 61.8692 59.5738C71.616 59.347 81.7849 57.182 92.1294 53.1288C92.3049 54.2772 92.4052 55.4496 92.4418 56.6376ZM66.1491 48.5187C67.4583 50.8186 68.8951 53.0515 70.4415 55.204C67.9442 55.5561 65.472 55.7829 63.0269 55.8821C63.8911 53.3859 64.9224 50.9095 66.1491 48.5187ZM59.5453 70.8461C59.7146 69.611 59.9152 68.3425 60.1493 67.049C67.5712 67.0375 78.739 65.7898 92.3164 60.4995C92.1837 61.7994 91.9591 63.07 91.6613 64.3145C91.6111 64.3291 91.561 64.3374 91.5108 64.3573C80.4976 68.7626 69.7446 70.9422 59.5453 70.8461ZM90.1744 68.7803C90.0594 69.0531 89.9372 69.3226 89.8139 69.5922C89.6081 69.4407 89.398 69.2923 89.1943 69.1377C89.5203 69.0196 89.8473 68.9005 90.1744 68.7803ZM67.2065 28.7681C58.7543 35.4063 52.9426 45.7205 49.9103 59.4975C47.8613 68.8127 47.6471 77.3506 47.7276 81.9544C46.4611 81.1363 45.2606 80.2251 44.1394 79.2262C44.1394 79.2241 44.1404 79.223 44.1404 79.221C44.0098 74.7269 44.1091 64.3636 46.9575 53.5583C46.969 53.5238 46.9878 53.4925 46.9972 53.4569C47.6325 51.0673 48.366 48.7842 49.1779 46.6703C49.1883 46.6432 49.1925 46.6149 49.2009 46.5867C49.6857 45.3308 50.2155 44.0853 50.7943 42.8575C50.8204 42.8147 50.8466 42.7729 50.8685 42.7269C52.0419 40.2588 53.3742 37.958 54.8276 35.8859C54.8464 35.8588 54.8611 35.8285 54.8788 35.7992C56.7022 33.2204 58.8254 30.8307 61.3039 28.7388C61.3593 28.6929 61.4021 28.6385 61.4502 28.5884C62.1064 28.5445 62.7657 28.5142 63.4292 28.5142C64.7103 28.5142 65.9694 28.6061 67.2065 28.7681ZM34.7102 61.8234C36.3037 62.5757 38.4844 63.4764 41.2231 64.3197C41.0737 65.5224 40.9524 66.6916 40.8532 67.8138C38.5816 67.0396 36.8073 66.2548 35.5441 65.6227C35.1857 64.3866 34.9025 63.1201 34.7102 61.8234ZM55.0366 29.7493C54.4922 30.3563 53.9708 30.9781 53.4651 31.6102L52.7901 30.5329C53.5299 30.2414 54.2791 29.9791 55.0366 29.7493ZM32.4919 13.4039C29.8421 13.3642 27.6864 11.1783 27.6864 8.53367C27.6864 5.84202 29.8765 3.65192 32.5671 3.65192C35.2588 3.65192 37.4489 5.84202 37.4489 8.53367C37.4489 9.22958 37.2869 9.92339 36.9683 10.5984C36.7028 11.1616 36.7426 11.8209 37.0727 12.3475L51.1506 34.793C50.7943 35.3311 50.4516 35.8755 50.1183 36.4262C50.0974 36.4596 50.0775 36.492 50.0566 36.5254C49.739 37.0531 49.4328 37.5849 49.135 38.121C49.111 38.1659 49.0838 38.2077 49.0598 38.2526L34.0112 14.2597C33.682 13.7362 33.1105 13.4144 32.4919 13.4039ZM43.5699 36.3729L47.1497 42.0811C46.9303 42.5649 46.7171 43.0508 46.5123 43.5388L39.9713 40.4407C41.0413 38.9778 42.245 37.6152 43.5699 36.3729ZM14.6984 36.6989C14.3577 36.6989 14.0192 36.794 13.7224 36.982C13.0965 37.3781 12.4309 37.6226 11.7444 37.7093C9.07891 38.0562 6.62654 36.1534 6.28799 33.4827C5.9484 30.813 7.84384 28.3637 10.5136 28.0252C13.153 27.694 15.5897 29.5612 15.9554 32.1943C16.0411 32.8035 16.4266 33.3291 16.9825 33.5924L45.1811 46.9504C44.7851 48.0694 44.411 49.2261 44.0589 50.4131L15.481 36.8744C15.2313 36.7563 14.9648 36.6989 14.6984 36.6989ZM43.0976 53.9982C42.5417 56.2656 42.0987 58.5006 41.7466 60.6584C38.0863 59.4849 35.589 58.2279 34.3936 57.5602C34.3936 57.5571 34.3926 57.5529 34.3926 57.5498C34.3926 55.0932 34.7019 52.6628 35.3069 50.3076L43.0976 53.9982ZM37.427 70.4501C38.3736 70.8231 39.429 71.2035 40.5899 71.5765C40.5209 72.9192 40.4822 74.1637 40.4655 75.288C39.3015 73.7844 38.2817 72.1658 37.427 70.4501ZM58.6561 86.1862C58.6143 84.4663 58.6091 81.783 58.8014 78.4854C61.4721 81.2585 64.3811 83.8697 67.5043 86.2939C66.1721 86.4819 64.8127 86.5854 63.4292 86.5854C61.8034 86.5854 60.2099 86.4443 58.6561 86.1862ZM82.1966 84.2897L89.0731 95.2549L89.4722 99.2422L85.9969 97.1409L79.1371 86.2061C80.182 85.6304 81.1904 84.994 82.1632 84.3117C82.1747 84.3044 82.1862 84.2971 82.1966 84.2897ZM81.578 80.1906C78.7599 78.0486 76.1059 75.7425 73.6567 73.2995C77.4068 72.6433 81.2029 71.7196 85.0345 70.5285C86.0209 71.3194 87.0345 72.0979 88.0668 72.8534C88.0261 72.9192 87.9895 72.9881 87.9477 73.055C87.931 73.0811 87.9226 73.1104 87.907 73.1376C86.1923 75.8198 84.0523 78.2032 81.578 80.1906ZM100.235 77.1186L92.0918 73.2462C92.6696 72.1951 93.1889 71.1084 93.6508 69.9914L101.703 73.8199L104.231 77.012L100.235 77.1186Z" fill="black"/>
</g>
<defs>
<clipPath id="clip0">
<rect width="112" height="112" fill="white"/>
</clipPath>
</defs>
</svg>
