<svg width="69" height="65" viewBox="0 0 69 65" fill="none" xmlns="http://www.w3.org/2000/svg">
<path fill-rule="evenodd" clip-rule="evenodd" d="M10.875 19.662C12.9511 19.662 14.8813 19.0681 16.4877 18.0493L23.25 22.8697L16.4877 27.6901C14.8813 26.6714 12.9511 26.0775 10.875 26.0775C5.28312 26.0775 0.750001 30.3859 0.750001 35.7007C0.750001 41.0155 5.28312 45.3239 10.875 45.3239C16.4669 45.3239 21 41.0155 21 35.7007C21 34.6978 20.8386 33.7306 20.539 32.8215L28.875 26.8794L49.35 41.4746L53.4 36.3423L34.5 22.8697L53.4 9.39721L49.35 4.26482L28.875 18.8601L20.539 12.9179C20.8386 12.0088 21 11.0417 21 10.0388C21 4.72399 16.4669 0.415527 10.875 0.415527C5.28312 0.415527 0.750001 4.72399 0.750001 10.0388C0.750001 15.3535 5.28312 19.662 10.875 19.662ZM58.125 26.0775H51.375V19.662H58.125V26.0775ZM61.5 29.2852V35.7007H68.25V29.2852H61.5ZM61.5 38.9084V45.3239H68.25V38.9084H61.5ZM61.5 64.5704V58.1549H68.25V64.5704H61.5ZM61.5 48.5317V54.9472H68.25V48.5317H61.5ZM51.375 64.5704V58.1549H58.125V64.5704H51.375ZM41.25 58.1549V64.5704H48V58.1549H41.25ZM21 64.5704V58.1549H27.75V64.5704H21ZM31.125 58.1549V64.5704H37.875V58.1549H31.125ZM10.875 64.5704V58.1549H17.625V64.5704H10.875ZM10.875 48.5317V54.9472H17.625V48.5317H10.875ZM48 19.662H41.25V26.0775H48V19.662ZM68.25 26.0775H61.5V19.662H68.25V26.0775ZM10.875 38.9085C12.739 38.9085 14.25 37.4723 14.25 35.7007C14.25 33.9291 12.739 32.493 10.875 32.493C9.01104 32.493 7.5 33.9291 7.5 35.7007C7.5 37.4723 9.01104 38.9085 10.875 38.9085ZM14.25 10.0387C14.25 11.8103 12.739 13.2465 10.875 13.2465C9.01104 13.2465 7.5 11.8103 7.5 10.0387C7.5 8.26714 9.01104 6.83099 10.875 6.83099C12.739 6.83099 14.25 8.26714 14.25 10.0387Z" fill="black"/>
</svg>
