<svg width="54" height="54" viewBox="0 0 54 54" fill="none" xmlns="http://www.w3.org/2000/svg">
<g id="24 / symbols / at-sign">
<path id="icon" fill-rule="evenodd" clip-rule="evenodd" d="M33.7489 15.75H38.2489V26.9719L38.2489 27L38.2489 27.0267C38.2502 32.5634 38.6781 33.75 40.4989 33.75C43.4336 33.75 44.9989 32.3621 44.9989 27C44.9989 15.099 39.0297 9 26.9991 9C19.2051 9.00098 12.2971 14.0181 9.88503 21.4296C7.47301 28.8411 10.105 36.9629 16.4056 41.5509C22.7063 46.139 31.2439 46.1507 37.5571 41.58L40.1961 45.225C32.3046 50.9384 21.6325 50.9237 13.7567 45.1887C5.8809 39.4536 2.59091 29.3013 5.60594 20.037C8.62096 10.7726 17.256 4.50122 26.9989 4.5C41.5369 4.5 49.4989 12.6351 49.4989 27C49.4989 34.976 45.8064 38.25 40.4989 38.25C37.4752 38.25 35.7447 37.2751 34.7948 35.1109C32.7727 37.0549 30.0254 38.25 26.9989 38.25C20.7857 38.25 15.7489 33.2132 15.7489 27C15.7489 20.7868 20.7857 15.75 26.9989 15.75C29.5315 15.75 31.8686 16.5869 33.7489 17.9992V15.75ZM33.7489 27C33.7489 30.7279 30.7268 33.75 26.9989 33.75C23.271 33.75 20.2489 30.7279 20.2489 27C20.2489 23.2721 23.271 20.25 26.9989 20.25C30.7268 20.25 33.7489 23.2721 33.7489 27Z" fill="black"/>
</g>
</svg>
