<svg width="132" height="132" viewBox="0 0 132 132" fill="none" xmlns="http://www.w3.org/2000/svg">
<path d="M65.9998 39.5587C51.369 39.5587 39.5611 51.3665 39.5611 65.9974C39.5611 80.6282 51.369 92.436 65.9998 92.436C80.6307 92.436 92.4385 80.6282 92.4385 65.9974C92.4385 51.3665 80.6307 39.5587 65.9998 39.5587ZM65.9998 83.1806C56.5381 83.1806 48.8166 75.4591 48.8166 65.9974C48.8166 56.5357 56.5381 48.8142 65.9998 48.8142C75.4615 48.8142 83.183 56.5357 83.183 65.9974C83.183 75.4591 75.4615 83.1806 65.9998 83.1806ZM93.5213 32.3142C90.1053 32.3142 87.3467 35.0728 87.3467 38.4888C87.3467 41.9048 90.1053 44.6634 93.5213 44.6634C96.9373 44.6634 99.6959 41.9177 99.6959 38.4888C99.6969 37.6776 99.5379 36.8743 99.228 36.1247C98.918 35.3751 98.4632 34.694 97.8897 34.1204C97.3161 33.5468 96.635 33.0921 95.8854 32.7821C95.1358 32.4722 94.3324 32.3132 93.5213 32.3142ZM117.537 65.9974C117.537 58.8817 117.601 51.8306 117.201 44.7278C116.802 36.4778 114.92 29.156 108.887 23.1232C102.841 17.0775 95.5322 15.2083 87.2822 14.8087C80.1666 14.4091 73.1154 14.4736 66.0127 14.4736C58.8971 14.4736 51.8459 14.4091 44.7432 14.8087C36.4932 15.2083 29.1713 17.0904 23.1385 23.1232C17.0928 29.1689 15.2236 36.4778 14.824 44.7278C14.4244 51.8435 14.4889 58.8946 14.4889 65.9974C14.4889 73.1001 14.4244 80.1642 14.824 87.2669C15.2236 95.5169 17.1057 102.839 23.1385 108.872C29.1842 114.917 36.4932 116.786 44.7432 117.186C51.8588 117.586 58.91 117.521 66.0127 117.521C73.1283 117.521 80.1795 117.586 87.2822 117.186C95.5322 116.786 102.854 114.904 108.887 108.872C114.933 102.826 116.802 95.5169 117.201 87.2669C117.614 80.1642 117.537 73.113 117.537 65.9974ZM106.193 96.3934C105.252 98.7395 104.117 100.493 102.3 102.297C100.482 104.115 98.742 105.249 96.3959 106.19C89.6154 108.884 73.515 108.279 65.9998 108.279C58.4846 108.279 42.3713 108.884 35.5908 106.203C33.2447 105.262 31.4916 104.128 29.6869 102.31C27.8693 100.493 26.735 98.7524 25.794 96.4063C23.1127 89.613 23.7186 73.5126 23.7186 65.9974C23.7186 58.4821 23.1127 42.3689 25.794 35.5884C26.735 33.2423 27.8693 31.4892 29.6869 29.6845C31.5045 27.8798 33.2447 26.7325 35.5908 25.7915C42.3713 23.1103 58.4846 23.7161 65.9998 23.7161C73.515 23.7161 89.6283 23.1103 96.4088 25.7915C98.7549 26.7325 100.508 27.8669 102.313 29.6845C104.13 31.5021 105.265 33.2423 106.206 35.5884C108.887 42.3689 108.281 58.4821 108.281 65.9974C108.281 73.5126 108.887 89.613 106.193 96.3934Z" fill="#767676"/>
</svg>
