<svg width="120" height="120" viewBox="0 0 120 120" fill="none" xmlns="http://www.w3.org/2000/svg">
<path d="M97.7624 14.9855C96.5586 15.0731 95.377 15.3555 94.2637 15.8218H94.2487C93.1799 16.2455 88.0987 18.383 80.3737 21.623L52.6912 33.2818C32.8274 41.6443 13.3012 49.8793 13.3012 49.8793L13.5337 49.7893C13.5337 49.7893 12.1875 50.2318 10.7812 51.1955C9.91244 51.7484 9.16486 52.4717 8.58371 53.3218C7.89371 54.3343 7.33871 55.883 7.54496 57.4843C7.88246 60.1918 9.63746 61.8155 10.8975 62.7118C12.1725 63.6193 13.3875 64.043 13.3875 64.043H13.4175L31.7287 70.2118C32.55 72.848 37.3087 88.493 38.4524 92.0968C39.1274 94.2493 39.7837 95.5955 40.6049 96.623C41.0024 97.148 41.4674 97.5868 42.0262 97.9393C42.3167 98.1082 42.6264 98.2417 42.9487 98.3368L42.7612 98.2918C42.8174 98.3068 42.8624 98.3518 42.9037 98.3668C43.0537 98.408 43.1549 98.423 43.3462 98.453C46.2449 99.3305 48.5737 97.5305 48.5737 97.5305L48.7049 97.4255L59.5162 87.5818L77.6362 101.483L78.0487 101.659C81.8249 103.317 85.6499 102.394 87.6712 100.767C89.7074 99.128 90.4987 97.0318 90.4987 97.0318L90.6299 96.6943L104.632 24.9605C105.03 23.1905 105.131 21.533 104.692 19.9243C104.24 18.2961 103.195 16.8958 101.764 15.998C100.562 15.2672 99.1675 14.9145 97.7624 14.9855ZM97.3837 22.673C97.3687 22.9093 97.4137 22.883 97.3087 23.3368V23.378L83.4374 94.3655C83.3774 94.4668 83.2762 94.688 82.9987 94.9093C82.7062 95.1418 82.4737 95.288 81.2549 94.8043L59.0924 77.813L45.7049 90.0155L48.5174 72.053L84.7274 38.303C86.2199 36.9155 85.7212 36.623 85.7212 36.623C85.8262 34.9205 83.4674 36.1243 83.4674 36.1243L37.8074 64.4105L37.7924 64.3355L15.9075 56.9668V56.9518L15.8512 56.9405C15.8896 56.9278 15.9271 56.9128 15.9637 56.8955L16.0837 56.8355L16.2 56.7943C16.2 56.7943 35.7412 48.5593 55.6049 40.1968C65.5499 36.008 75.5699 31.7893 83.2762 28.5343C90.9824 25.298 96.6787 22.9243 97.0012 22.7968C97.3087 22.6768 97.1624 22.6768 97.3837 22.6768V22.673Z" fill="#767676"/>
</svg>
