<svg width="123" height="123" viewBox="0 0 123 123" fill="none" xmlns="http://www.w3.org/2000/svg">
<path fill-rule="evenodd" clip-rule="evenodd" d="M94.3154 28.8693C90.0532 24.5791 84.9821 21.1772 79.3958 18.8609C73.8095 16.5446 67.8191 15.3598 61.7716 15.3751C36.4131 15.3751 15.7696 36.0135 15.7594 61.3823C15.7594 69.49 17.876 77.403 21.8991 84.3833L15.375 108.22L39.7649 101.819C46.5114 105.491 54.0698 107.417 61.7511 107.42H61.7716C87.125 107.42 107.769 86.7818 107.779 61.413C107.796 55.368 106.615 49.3795 104.304 43.7936C101.994 38.2077 98.5984 33.1352 94.3154 28.8693ZM61.7716 99.6558H61.7563C54.9068 99.6565 48.1834 97.8137 42.2915 94.3206L40.8975 93.4904L26.4245 97.288L30.2836 83.1789L29.3765 81.7337C25.547 75.6371 23.5198 68.5818 23.5289 61.3823C23.5391 40.298 40.6925 23.1446 61.787 23.1446C66.8108 23.1335 71.7869 24.1188 76.4273 26.0436C81.0678 27.9684 85.2804 30.7944 88.8214 34.3582C92.3813 37.9049 95.203 42.122 97.1233 46.7658C99.0436 51.4095 100.025 56.3879 100.009 61.413C99.999 82.4973 82.8456 99.6558 61.7716 99.6558ZM82.7483 71.0121C81.5951 70.433 75.9474 67.6553 74.8916 67.2709C73.841 66.8865 73.0774 66.6969 72.3086 67.8449C71.5399 68.9929 69.3361 71.581 68.6648 72.3498C67.9934 73.1185 67.322 73.2108 66.174 72.6368C65.026 72.0628 61.3206 70.8482 56.9285 66.9327C53.5101 63.8833 51.2039 60.1215 50.5325 58.9684C49.8611 57.8153 50.4608 57.1952 51.0399 56.6212C51.5575 56.1087 52.1879 55.2784 52.7619 54.607C53.3359 53.9356 53.5255 53.459 53.9099 52.6903C54.2943 51.9215 54.1046 51.2501 53.8125 50.6761C53.5255 50.097 51.2244 44.439 50.266 42.1379C49.3384 39.9085 48.3903 40.2058 47.683 40.175C46.9505 40.1451 46.2175 40.1314 45.4844 40.134C44.9014 40.1489 44.3279 40.284 43.7996 40.5309C43.2713 40.7779 42.7998 41.1313 42.4145 41.569C41.3588 42.7221 38.3914 45.4999 38.3914 51.1579C38.3914 56.8159 42.5119 62.2843 43.0859 63.053C43.6599 63.8218 51.1936 75.4299 62.7249 80.4114C65.4719 81.5953 67.6141 82.3025 69.2798 82.8355C72.0319 83.7119 74.538 83.5838 76.5214 83.2917C78.7303 82.9637 83.3223 80.5139 84.2806 77.8284C85.239 75.1429 85.239 72.8418 84.952 72.36C84.665 71.8783 83.8911 71.5862 82.7483 71.0121Z" fill="#767676"/>
</svg>
