<svg width="35" height="35" viewBox="0 0 35 35" fill="none" xmlns="http://www.w3.org/2000/svg">
<g id="24 / arrows / circle-chevron-right">
<path id="icon" fill-rule="evenodd" clip-rule="evenodd" d="M1.45829 17.4997C1.45829 8.64011 8.64039 1.45801 17.5 1.45801C26.3595 1.45801 33.5416 8.64011 33.5416 17.4997C33.5416 26.3592 26.3595 33.5413 17.5 33.5413C8.64039 33.5413 1.45829 26.3592 1.45829 17.4997ZM4.37496 17.4997C4.37496 24.7484 10.2512 30.6247 17.5 30.6247C24.7487 30.6247 30.625 24.7484 30.625 17.4997C30.625 10.2509 24.7487 4.37467 17.5 4.37467C10.2512 4.37467 4.37496 10.2509 4.37496 17.4997ZM24.3645 15.6142L22.3021 13.5518L17.4999 18.354L12.6978 13.5518L10.6354 15.6142L17.4999 22.4787L24.3645 15.6142Z" fill="#696969"/>
</g>
</svg>
