<svg width="43" height="43" viewBox="0 0 43 43" fill="none" xmlns="http://www.w3.org/2000/svg">
<path d="M21.5 43C18.5885 43 15.8031 42.4331 13.1436 41.2993C10.484 40.1655 8.19548 38.6398 6.27783 36.7222C4.36019 34.8045 2.83447 32.5159 1.70068 29.8564C0.566895 27.1969 0 24.4115 0 21.5C0 18.5885 0.566895 15.8031 1.70068 13.1436C2.83447 10.484 4.36019 8.19548 6.27783 6.27783C8.19548 4.36019 10.484 2.83447 13.1436 1.70068C15.8031 0.566895 18.5885 0 21.5 0C24.4115 0 27.1969 0.566895 29.8564 1.70068C32.5159 2.83447 34.8045 4.36019 36.7222 6.27783C38.6398 8.19548 40.1655 10.484 41.2993 13.1436C42.4331 15.8031 43 18.5885 43 21.5C43 24.4115 42.4331 27.1969 41.2993 29.8564C40.1655 32.5159 38.6398 34.8045 36.7222 36.7222C34.8045 38.6398 32.5159 40.1655 29.8564 41.2993C27.1969 42.4331 24.4115 43 21.5 43ZM21.521 37.625C22.2629 37.625 22.8927 37.366 23.4106 36.8481C23.9285 36.3302 24.1875 35.7004 24.1875 34.9585C24.1875 34.2166 23.9285 33.5798 23.4106 33.0479C22.8927 32.5159 22.2629 32.25 21.521 32.25C20.7791 32.25 20.1423 32.5159 19.6104 33.0479C19.0785 33.5798 18.8125 34.2166 18.8125 34.9585C18.8125 35.7004 19.0785 36.3302 19.6104 36.8481C20.1423 37.366 20.7791 37.625 21.521 37.625ZM21.5 5.375C18.5326 5.375 15.999 6.4248 13.8994 8.52441C11.7998 10.624 10.75 13.1576 10.75 16.125C10.75 16.8809 11.009 17.5177 11.5269 18.0356C12.0448 18.5535 12.6746 18.8125 13.4165 18.8125C14.1584 18.8125 14.7952 18.5535 15.3271 18.0356C15.859 17.5177 16.125 16.8809 16.125 16.125C16.125 14.6413 16.6499 13.3745 17.6997 12.3247C18.7495 11.2749 20.0163 10.75 21.5 10.75C22.9837 10.75 24.2505 11.2749 25.3003 12.3247C26.3501 13.3745 26.875 14.6413 26.875 16.125C26.875 17.6087 26.3501 18.8755 25.3003 19.9253C24.2505 20.9751 22.9837 21.5 21.5 21.5C20.7721 21.5 20.1423 22.0529 19.6104 23.1587C19.0785 24.2645 18.8125 25.5033 18.8125 26.875C18.8125 27.6309 19.0715 28.2677 19.5894 28.7856C20.1073 29.3035 20.7441 29.5625 21.5 29.5625C22.2559 29.5625 22.8927 29.3035 23.4106 28.7856C23.9285 28.2677 24.1875 27.6309 24.1875 26.875V26.5391C26.5391 25.9232 28.4707 24.6494 29.9824 22.7178C31.4941 20.7861 32.25 18.5885 32.25 16.125C32.25 13.1576 31.2002 10.624 29.1006 8.52441C27.001 6.4248 24.4674 5.375 21.5 5.375Z" fill="black"/>
</svg>
