<svg width="20" height="20" viewBox="0 0 20 20" fill="none" xmlns="http://www.w3.org/2000/svg">
<path d="M9.99997 5.99414C7.78317 5.99414 5.99411 7.7832 5.99411 10C5.99411 12.2168 7.78317 14.0059 9.99997 14.0059C12.2168 14.0059 14.0058 12.2168 14.0058 10C14.0058 7.7832 12.2168 5.99414 9.99997 5.99414ZM9.99997 12.6035C8.56638 12.6035 7.39645 11.4336 7.39645 10C7.39645 8.56641 8.56638 7.39648 9.99997 7.39648C11.4336 7.39648 12.6035 8.56641 12.6035 10C12.6035 11.4336 11.4336 12.6035 9.99997 12.6035ZM14.1699 4.89648C13.6523 4.89648 13.2343 5.31445 13.2343 5.83203C13.2343 6.34961 13.6523 6.76758 14.1699 6.76758C14.6875 6.76758 15.1054 6.35156 15.1054 5.83203C15.1056 5.70913 15.0815 5.58741 15.0345 5.47383C14.9876 5.36026 14.9187 5.25706 14.8318 5.17016C14.7449 5.08325 14.6417 5.01435 14.5281 4.96738C14.4145 4.92042 14.2928 4.89633 14.1699 4.89648ZM17.8086 10C17.8086 8.92187 17.8183 7.85352 17.7578 6.77734C17.6972 5.52734 17.4121 4.41797 16.498 3.50391C15.582 2.58789 14.4746 2.30469 13.2246 2.24414C12.1465 2.18359 11.0781 2.19336 10.0019 2.19336C8.9238 2.19336 7.85544 2.18359 6.77927 2.24414C5.52927 2.30469 4.41989 2.58984 3.50583 3.50391C2.58981 4.41992 2.30661 5.52734 2.24606 6.77734C2.18552 7.85547 2.19528 8.92383 2.19528 10C2.19528 11.0762 2.18552 12.1465 2.24606 13.2227C2.30661 14.4727 2.59177 15.582 3.50583 16.4961C4.42185 17.4121 5.52927 17.6953 6.77927 17.7559C7.85739 17.8164 8.92575 17.8066 10.0019 17.8066C11.08 17.8066 12.1484 17.8164 13.2246 17.7559C14.4746 17.6953 15.584 17.4102 16.498 16.4961C17.414 15.5801 17.6972 14.4727 17.7578 13.2227C17.8203 12.1465 17.8086 11.0781 17.8086 10ZM16.0898 14.6055C15.9472 14.9609 15.7754 15.2266 15.5 15.5C15.2246 15.7754 14.9609 15.9473 14.6054 16.0898C13.5781 16.498 11.1386 16.4062 9.99997 16.4062C8.8613 16.4062 6.41989 16.498 5.39255 16.0918C5.03708 15.9492 4.77145 15.7773 4.49802 15.502C4.22263 15.2266 4.05075 14.9629 3.90817 14.6074C3.50192 13.5781 3.59372 11.1387 3.59372 10C3.59372 8.86133 3.50192 6.41992 3.90817 5.39258C4.05075 5.03711 4.22263 4.77148 4.49802 4.49805C4.77341 4.22461 5.03708 4.05078 5.39255 3.9082C6.41989 3.50195 8.8613 3.59375 9.99997 3.59375C11.1386 3.59375 13.58 3.50195 14.6074 3.9082C14.9629 4.05078 15.2285 4.22266 15.5019 4.49805C15.7773 4.77344 15.9492 5.03711 16.0918 5.39258C16.498 6.41992 16.4062 8.86133 16.4062 10C16.4062 11.1387 16.498 13.5781 16.0898 14.6055Z" fill="#767676"/>
</svg>
