<svg width="47" height="49" viewBox="0 0 47 49" fill="none" xmlns="http://www.w3.org/2000/svg">
<path d="M23.5 3.0625C12.1447 3.0625 2.9375 12.6615 2.9375 24.5C2.9375 36.3385 12.1447 45.9375 23.5 45.9375C34.8553 45.9375 44.0625 36.3385 44.0625 24.5C44.0625 12.6615 34.8553 3.0625 23.5 3.0625ZM23.5 42.3008C14.0725 42.3008 6.42578 34.3287 6.42578 24.5C6.42578 14.6713 14.0725 6.69922 23.5 6.69922C32.9275 6.69922 40.5742 14.6713 40.5742 24.5C40.5742 34.3287 32.9275 42.3008 23.5 42.3008Z" fill="black"/>
<path d="M21.2969 32.9219C21.2969 33.531 21.529 34.1153 21.9422 34.546C22.3553 34.9768 22.9157 35.2187 23.5 35.2187C24.0843 35.2187 24.6447 34.9768 25.0578 34.546C25.471 34.1153 25.7031 33.531 25.7031 32.9219C25.7031 32.3127 25.471 31.7285 25.0578 31.2977C24.6447 30.867 24.0843 30.625 23.5 30.625C22.9157 30.625 22.3553 30.867 21.9422 31.2977C21.529 31.7285 21.2969 32.3127 21.2969 32.9219ZM22.3984 27.5625H24.6016C24.8035 27.5625 24.9688 27.3902 24.9688 27.1797V14.1641C24.9688 13.9535 24.8035 13.7812 24.6016 13.7812H22.3984C22.1965 13.7812 22.0312 13.9535 22.0312 14.1641V27.1797C22.0312 27.3902 22.1965 27.5625 22.3984 27.5625Z" fill="black"/>
</svg>
