<svg width="50" height="49" viewBox="0 0 50 49" fill="none" xmlns="http://www.w3.org/2000/svg">
<path fill-rule="evenodd" clip-rule="evenodd" d="M47.3649 0.752197L49.8495 43.2584C50.0027 45.8789 47.8917 48.1213 45.1346 48.2669C44.9961 48.273 44.996 48.273 44.8576 48.2742H44.8575H44.8572H5.1427C2.38128 48.2742 0.1427 46.1465 0.1427 43.522C0.143342 43.456 0.143663 43.4231 0.144625 43.3901C0.145587 43.3572 0.147191 43.3242 0.150398 43.2584L2.63499 0.752197H47.3649ZM7.36493 5.50441L5.1427 43.522H44.8572L42.635 5.50441H7.36493ZM17.5 10.2566H12.5V16.1968C12.5 21.9011 18.3081 26.8893 25 26.8893C31.6919 26.8893 37.5 21.9011 37.5 16.1968V10.2566H32.5V16.1968C32.5 19.1631 29.0371 22.1371 25 22.1371C20.9628 22.1371 17.5 19.1631 17.5 16.1968V10.2566Z" fill="black"/>
</svg>
