<svg width="163" height="52" viewBox="0 0 163 52" fill="none" xmlns="http://www.w3.org/2000/svg">
<rect x="0.636719" y="0.313004" width="162" height="51" fill="#FF0000"/>
<path fill-rule="evenodd" clip-rule="evenodd" d="M123.892 48.2296C111.236 48.2296 100.976 37.9695 100.976 25.313C100.976 12.6565 111.236 2.39632 123.892 2.39632C136.549 2.39632 146.809 12.6565 146.809 25.313C146.809 37.9695 136.549 48.2296 123.892 48.2296ZM123.892 44.063C134.248 44.063 142.642 35.6683 142.642 25.313C142.642 14.9577 134.248 6.563 123.892 6.563C113.537 6.563 105.142 14.9577 105.142 25.313C105.142 35.6683 113.537 44.063 123.892 44.063ZM125.976 31.563C125.976 35.0148 128.774 37.813 132.226 37.813C135.677 37.813 138.476 35.0148 138.476 31.563C138.476 28.1112 135.677 25.313 132.226 25.313C128.774 25.313 125.976 28.1112 125.976 31.563ZM132.226 33.6463C133.376 33.6463 134.309 32.7136 134.309 31.563C134.309 30.4124 133.376 29.4796 132.226 29.4796C131.075 29.4796 130.142 30.4124 130.142 31.563C130.142 32.7136 131.075 33.6463 132.226 33.6463ZM109.309 19.063C109.309 22.5148 112.107 25.313 115.559 25.313C119.011 25.313 121.809 22.5148 121.809 19.063C121.809 15.6112 119.011 12.813 115.559 12.813C112.107 12.813 109.309 15.6112 109.309 19.063ZM115.559 21.1463C116.71 21.1463 117.642 20.2136 117.642 19.063C117.642 17.9124 116.71 16.9796 115.559 16.9796C114.408 16.9796 113.476 17.9124 113.476 19.063C113.476 20.2136 114.408 21.1463 115.559 21.1463ZM119.972 37.813L132.472 12.813H127.813L115.313 37.813H119.972Z" fill="white"/>
<path d="M35.6719 32.3119C35.6719 34.5736 34.8516 36.3373 33.2109 37.6029C31.5703 38.8685 29.3438 39.5014 26.5312 39.5014C23.4844 39.5014 21.1406 39.1088 19.5 38.3236V35.4408C20.5547 35.8861 21.7031 36.2377 22.9453 36.4955C24.1875 36.7533 25.418 36.8822 26.6367 36.8822C28.6289 36.8822 30.1289 36.5072 31.1367 35.7572C32.1445 34.9955 32.6484 33.9408 32.6484 32.5932C32.6484 31.7025 32.4668 30.976 32.1035 30.4135C31.752 29.8392 31.1543 29.3119 30.3105 28.8314C29.4785 28.351 28.207 27.806 26.4961 27.1967C24.1055 26.3412 22.3945 25.3275 21.3633 24.1557C20.3438 22.9838 19.834 21.4545 19.834 19.5678C19.834 17.5873 20.5781 16.0111 22.0664 14.8392C23.5547 13.6674 25.5234 13.0814 27.9727 13.0814C30.5273 13.0814 32.877 13.5502 35.0215 14.4877L34.0898 17.0892C31.9688 16.1986 29.9062 15.7533 27.9023 15.7533C26.3203 15.7533 25.084 16.0932 24.1934 16.7728C23.3027 17.4525 22.8574 18.3959 22.8574 19.6029C22.8574 20.4935 23.0215 21.226 23.3496 21.8002C23.6777 22.3627 24.2285 22.8842 25.002 23.3646C25.7871 23.8334 26.9824 24.3549 28.5879 24.9291C31.2832 25.89 33.1348 26.9213 34.1426 28.0228C35.1621 29.1244 35.6719 30.5541 35.6719 32.3119ZM55.462 39.1498L52.2628 30.976H41.962L38.798 39.1498H35.7745L45.9347 13.3451H48.4484L58.5558 39.1498H55.462ZM51.3312 28.2865L48.3429 20.3236C47.9562 19.3158 47.5577 18.0795 47.1476 16.6146C46.8898 17.7396 46.5206 18.976 46.0402 20.3236L43.0167 28.2865H51.3312ZM60.469 39.1498V13.4506H63.4573V36.4428H74.7952V39.1498H60.469ZM91.8783 39.1498H77.5521V13.4506H91.8783V16.1049H80.5404V24.3842L91.1927 24.3842V27.0209L80.5404 27.0209V36.4779H91.8783V39.1498Z" fill="white"/>
</svg>
