<svg width="25" height="25" viewBox="0 0 25 25" fill="none" xmlns="http://www.w3.org/2000/svg">
<path d="M20.3671 3.12186C20.1163 3.14011 19.8702 3.19895 19.6382 3.29608H19.6351C19.4125 3.38436 18.3539 3.82968 16.7445 4.50468L10.9773 6.93358C6.83902 8.67577 2.77105 10.3914 2.77105 10.3914L2.81949 10.3726C2.81949 10.3726 2.53902 10.4648 2.24605 10.6656C2.06506 10.7808 1.90931 10.9315 1.78824 11.1086C1.64449 11.3195 1.52886 11.6422 1.57183 11.9758C1.64214 12.5398 2.00777 12.8781 2.27027 13.0648C2.53589 13.2539 2.78902 13.3422 2.78902 13.3422H2.79527L6.61011 14.6273C6.78121 15.1765 7.77261 18.4359 8.01089 19.1867C8.15152 19.6351 8.28824 19.9156 8.45933 20.1297C8.54214 20.239 8.63902 20.3305 8.75542 20.4039C8.81594 20.4391 8.88046 20.4669 8.94761 20.4867L8.90855 20.4773C8.92027 20.4805 8.92964 20.4898 8.93824 20.493C8.96949 20.5016 8.99058 20.5047 9.03042 20.5109C9.63433 20.6937 10.1195 20.3187 10.1195 20.3187L10.1468 20.2969L12.3992 18.2461L16.1742 21.1422L16.2601 21.1789C17.0468 21.5242 17.8437 21.332 18.2648 20.993C18.689 20.6516 18.8539 20.2148 18.8539 20.2148L18.8812 20.1445L21.7984 5.19999C21.8812 4.83124 21.9023 4.48593 21.8109 4.15077C21.7166 3.81157 21.499 3.51984 21.2007 3.3328C20.9503 3.18055 20.6599 3.10706 20.3671 3.12186ZM20.2882 4.72343C20.2851 4.77264 20.2945 4.76718 20.2726 4.86171V4.8703L17.3828 19.6594C17.3703 19.6805 17.3492 19.7265 17.2914 19.7726C17.2304 19.8211 17.182 19.8515 16.9281 19.7508L12.3109 16.2109L9.52183 18.7531L10.1078 15.0109L17.6515 7.97967C17.9625 7.69061 17.8585 7.62967 17.8585 7.62967C17.8804 7.27499 17.389 7.52577 17.389 7.52577L7.87652 13.4187L7.87339 13.4031L3.31402 11.868V11.8648L3.3023 11.8625C3.31029 11.8598 3.31812 11.8567 3.32574 11.8531L3.35074 11.8406L3.37496 11.832C3.37496 11.832 7.44605 10.1164 11.5843 8.37421C13.6562 7.50155 15.7437 6.62264 17.3492 5.94452C18.9546 5.2703 20.1414 4.77577 20.2085 4.74921C20.2726 4.72421 20.2421 4.72421 20.2882 4.72421V4.72343Z" fill="#767676"/>
</svg>
