<svg width="57" height="57" viewBox="0 0 57 57" fill="none" xmlns="http://www.w3.org/2000/svg">
<path d="M50.8567 15.833H6.14335C5.35389 15.833 4.59677 16.1466 4.03853 16.7049C3.4803 17.2631 3.16669 18.0202 3.16669 18.8097V47.6897C3.16669 48.4791 3.4803 49.2363 4.03853 49.7945C4.59677 50.3527 5.35389 50.6663 6.14335 50.6663H50.8567C51.6461 50.6663 52.4033 50.3527 52.9615 49.7945C53.5197 49.2363 53.8334 48.4791 53.8334 47.6897V18.8097C53.8334 18.0202 53.5197 17.2631 52.9615 16.7049C52.4033 16.1466 51.6461 15.833 50.8567 15.833ZM50.6667 47.4997H6.33335V18.9997H50.6667V47.4997Z" fill="black"/>
<path d="M13.5533 30.7959C14.4928 30.7959 15.4112 30.5173 16.1923 29.9954C16.9734 29.4734 17.5823 28.7316 17.9418 27.8636C18.3013 26.9957 18.3954 26.0406 18.2121 25.1192C18.0288 24.1978 17.5764 23.3514 16.9121 22.6871C16.2478 22.0228 15.4014 21.5705 14.48 21.3872C13.5586 21.2039 12.6035 21.298 11.7356 21.6575C10.8676 22.017 10.1258 22.6258 9.60386 23.4069C9.08193 24.1881 8.80334 25.1064 8.80334 26.0459C8.80334 27.3057 9.30379 28.5139 10.1946 29.4047C11.0854 30.2955 12.2936 30.7959 13.5533 30.7959ZM13.5533 23.5126C14.0569 23.5 14.5528 23.6378 14.9776 23.9084C15.4025 24.179 15.737 24.5701 15.9385 25.0317C16.14 25.4934 16.1993 26.0046 16.1088 26.5002C16.0183 26.9957 15.7822 27.453 15.4305 27.8136C15.0789 28.1743 14.6277 28.4219 14.1347 28.5249C13.6416 28.6279 13.129 28.5816 12.6624 28.3918C12.1958 28.2021 11.7964 27.8776 11.5151 27.4597C11.2338 27.0418 11.0835 26.5496 11.0833 26.0459C11.0831 25.3849 11.3413 24.7499 11.8028 24.2766C12.2643 23.8033 12.8925 23.5291 13.5533 23.5126Z" fill="black"/>
<path d="M12.5084 44.3329L22.0084 34.8329L27.0434 39.8679L22.5784 44.3329H25.745L37.5567 32.5212L47.5 42.3854V39.2187L38.3167 30.0829C38.1061 29.874 37.8216 29.7568 37.525 29.7568C37.2285 29.7568 36.9439 29.874 36.7334 30.0829L28.5634 38.2529L22.7525 32.4579C22.542 32.249 22.2574 32.1318 21.9609 32.1318C21.6643 32.1318 21.3797 32.249 21.1692 32.4579L9.37335 44.3329H12.5084Z" fill="black"/>
<path d="M47.7217 4.75033C47.7217 4.3304 47.5549 3.92767 47.2579 3.63074C46.961 3.33381 46.5583 3.16699 46.1383 3.16699H11.305C10.8851 3.16699 10.4824 3.33381 10.1854 3.63074C9.88849 3.92767 9.72168 4.3304 9.72168 4.75033V6.33366H47.7217V4.75033Z" fill="black"/>
<path d="M50.8566 11.0833C50.8566 10.6634 50.6898 10.2607 50.3929 9.96375C50.096 9.66682 49.6932 9.5 49.2733 9.5H8.10665C7.68672 9.5 7.284 9.66682 6.98706 9.96375C6.69013 10.2607 6.52332 10.6634 6.52332 11.0833V12.6667H50.8566V11.0833Z" fill="black"/>
</svg>
